<?xml version="1.0" encoding="UTF-8" standalone="no"?><!-- Generator: Gravit.io --><svg xmlns="http://www.w3.org/2000/svg" xmlns:xlink="http://www.w3.org/1999/xlink" style="isolation:isolate" viewBox="462.062 340.101 215.839 194.933" width="215.839pt" height="194.933pt"><defs><clipPath id="_clipPath_7x6akSYFgMvMOx7b72YQjdD7CMxOY0Rx"><rect x="462.062" y="340.101" width="215.839" height="194.933"/></clipPath></defs><g clip-path="url(#_clipPath_7x6akSYFgMvMOx7b72YQjdD7CMxOY0Rx)"><path d=" M 557.7 351.901 L 648.166 442.367 C 665.551 459.752 665.551 487.914 648.166 505.299 C 630.781 522.684 602.618 522.684 585.233 505.299 L 486.901 406.967 C 476.04 396.106 476.04 378.496 486.901 367.634 C 497.763 356.773 515.372 356.773 526.234 367.634 L 608.833 450.233 C 613.159 454.56 613.159 461.64 608.833 465.966 C 604.506 470.293 597.426 470.293 593.1 465.966 L 518.367 391.234 L 506.567 403.034 L 581.3 477.766 C 592.161 488.628 609.771 488.628 620.633 477.766 C 631.494 466.905 631.494 449.295 620.633 438.433 L 538.034 355.834 C 520.649 338.449 492.486 338.449 475.101 355.834 C 457.716 373.219 457.716 401.382 475.101 418.767 L 573.433 517.099 C 597.348 541.013 636.051 541.013 659.965 517.099 C 683.88 493.185 683.88 454.481 659.965 430.567 L 569.5 340.101 L 557.7 351.901 Z " fill="rgb(0,0,0)"/></g></svg>