<?xml version="1.0" encoding="UTF-8" standalone="no"?><!-- Generator: Gravit.io --><svg xmlns="http://www.w3.org/2000/svg" xmlns:xlink="http://www.w3.org/1999/xlink" style="isolation:isolate" viewBox="0 0 10 45" width="10pt" height="45pt"><defs><clipPath id="_clipPath_pRiQucb48EbClD2owx6iL5PXJMRSLpXo"><rect x="0" y="0" width="10" height="45"/></clipPath></defs><g clip-path="url(#_clipPath_pRiQucb48EbClD2owx6iL5PXJMRSLpXo)"><path d=" M 5 0 C 2.239 0 0 2.239 0 5 C 0 7.761 2.239 10 5 10 C 7.761 10 10 7.761 10 5 C 10 2.239 7.761 0 5 0 Z  M 5 17.5 C 2.239 17.5 0 19.739 0 22.5 C 0 25.261 2.239 27.5 5 27.5 C 7.761 27.5 10 25.261 10 22.5 C 10 19.739 7.761 17.5 5 17.5 Z  M 5 35 C 2.239 35 0 37.239 0 40 C 0 42.761 2.239 45 5 45 C 7.761 45 10 42.761 10 40 C 10 37.239 7.761 35 5 35 Z " fill="rgb(0,0,0)"/></g></svg>