<?xml version="1.0" encoding="UTF-8" standalone="no"?><!-- Generator: Gravit.io --><svg xmlns="http://www.w3.org/2000/svg" xmlns:xlink="http://www.w3.org/1999/xlink" style="isolation:isolate" viewBox="0 0 50 50" width="50pt" height="50pt"><defs><clipPath id="_clipPath_97uKgbZaZMHYpaJs0rjT2lCHw4GjVo3w"><rect x="0" y="0" width="50" height="50"/></clipPath></defs><g clip-path="url(#_clipPath_97uKgbZaZMHYpaJs0rjT2lCHw4GjVo3w)"><path d=" M 19.238 28.943 C 16.537 25.73 15 21.747 15 17.457 C 15 12.843 16.875 8.478 20.125 5.112 C 23.417 1.847 27.863 0.01 32.5 0 C 37.125 0 41.625 1.87 44.875 5.112 C 48.174 8.37 50.022 12.82 50 17.457 C 50 22.195 48.25 26.558 44.875 29.925 C 41.583 33.19 37.137 35.027 32.5 35.038 C 28.289 35.028 24.221 33.513 21.03 30.767 L 2.125 49.626 C 1.896 49.865 1.58 50 1.25 50 C 0.92 50 0.604 49.865 0.375 49.626 C -0.125 49.126 -0.125 48.378 0.375 47.88 L 19.238 28.943 L 19.238 28.943 Z  M 17.5 17.457 C 17.5 13.59 19.125 9.725 21.875 6.857 C 24.75 4.115 28.5 2.493 32.5 2.493 C 36.5 2.493 40.375 4.115 43.125 6.858 C 45.93 9.672 47.503 13.484 47.5 17.457 C 47.5 21.447 46 25.312 43.125 28.055 C 40.375 30.922 36.5 32.543 32.5 32.543 C 28.5 32.543 24.75 30.923 21.875 28.055 C 19.078 25.235 17.506 21.426 17.5 17.455 L 17.5 17.457 Z " fill-rule="evenodd" fill="rgb(0,0,0)"/></g></svg>