<?xml version="1.0" encoding="UTF-8" standalone="no"?><!-- Generator: Gravit.io --><svg xmlns="http://www.w3.org/2000/svg" xmlns:xlink="http://www.w3.org/1999/xlink" style="isolation:isolate" viewBox="0 0 63 44" width="63pt" height="44pt"><defs><clipPath id="_clipPath_SUt7djvFMdd8PLrVm2cucGktyENrPZlq"><rect width="63" height="44"/></clipPath></defs><g clip-path="url(#_clipPath_SUt7djvFMdd8PLrVm2cucGktyENrPZlq)"><defs><linearGradient id="_lgradient_2" x1="0" y1="0.5" x2="1" y2="0.5"><stop offset="0%" style="stop-color:#3C4CFF"/><stop offset="50%" style="stop-color:#232D96"/><stop offset="100%" style="stop-color:#3341D9"/></linearGradient></defs><path d="M 2.838 0 L 60.162 0 C 61.729 0 63 1.271 63 2.838 L 63 41.162 C 63 42.729 61.729 44 60.162 44 L 2.838 44 C 1.271 44 0 42.729 0 41.162 L 0 2.838 C 0 1.271 1.271 0 2.838 0 Z" style="stroke:none;fill:url(#_lgradient_2);stroke-miterlimit:10;"/><path d="M 2.838 0 L 60.162 0 C 61.729 0 63 1.271 63 2.838 L 63 41.162 C 63 42.729 61.729 44 60.162 44 L 2.838 44 C 1.271 44 0 42.729 0 41.162 L 0 2.838 C 0 1.271 1.271 0 2.838 0 Z" style="fill:none;stroke:#000000;stroke-width:2;stroke-linecap:square;stroke-miterlimit:2;"/><clipPath id="_clipPath_cej9VVYtCX0WerOT4i0llCOZ9twZ0TbA"><path d="M 2.838 0 L 60.162 0 C 61.729 0 63 1.271 63 2.838 L 63 41.162 C 63 42.729 61.729 44 60.162 44 L 2.838 44 C 1.271 44 0 42.729 0 41.162 L 0 2.838 C 0 1.271 1.271 0 2.838 0 Z" style="stroke:none;fill:url(#_lgradient_2);stroke-miterlimit:10;"/><path d="M 2.838 0 L 60.162 0 C 61.729 0 63 1.271 63 2.838 L 63 41.162 C 63 42.729 61.729 44 60.162 44 L 2.838 44 C 1.271 44 0 42.729 0 41.162 L 0 2.838 C 0 1.271 1.271 0 2.838 0 Z" style="fill:none;stroke:#000000;stroke-width:2;stroke-linecap:square;stroke-miterlimit:2;"/></clipPath><g clip-path="url(#_clipPath_cej9VVYtCX0WerOT4i0llCOZ9twZ0TbA)"><path d=" M 64 40 L 60 46 L -3 3 L 1 -3 L 64 40 Z " fill="rgb(255,255,255)"/><linearGradient id="_lgradient_3" x1="0" y1="0.5" x2="1" y2="0.5" gradientTransform="matrix(62,0,0,43,0,1)" gradientUnits="userSpaceOnUse"><stop offset="0%" stop-opacity="1" style="stop-color:rgb(200,33,33)"/><stop offset="51.73913043478261%" stop-opacity="1" style="stop-color:rgb(255,0,0)"/><stop offset="100%" stop-opacity="1" style="stop-color:rgb(234,20,20)"/></linearGradient><path d=" M 62 42 L 60 44 L 0 3 L 1 1 L 62 42 Z " fill="url(#_lgradient_3)"/><path d=" M 64 3 L 60 -3 L -3 40 L 1 46 L 64 3 Z " fill="rgb(255,255,255)"/><linearGradient id="_lgradient_4" x1="0" y1="0.5" x2="1" y2="0.5" gradientTransform="matrix(62,0,0,-43,0,42)" gradientUnits="userSpaceOnUse"><stop offset="0%" stop-opacity="1" style="stop-color:rgb(200,33,33)"/><stop offset="51.73913043478261%" stop-opacity="1" style="stop-color:rgb(255,0,0)"/><stop offset="100%" stop-opacity="1" style="stop-color:rgb(234,20,20)"/></linearGradient><path d=" M 62 1 L 60 -1 L 0 40 L 1 42 L 62 1 Z " fill="url(#_lgradient_4)"/><rect x="24.5" y="-9.5" width="14" height="63" transform="matrix(0,-1,1,0,9.5,53.5)" fill="rgb(235,235,235)"/><rect x="24" y="0" width="14" height="44" transform="matrix(1,0,0,1,0,0)" fill="rgb(235,235,235)"/><linearGradient id="_lgradient_5" x1="0" y1="0.5" x2="1" y2="0.5" gradientTransform="matrix(10,0,0,44,26,0)" gradientUnits="userSpaceOnUse"><stop offset="0%" stop-opacity="1" style="stop-color:rgb(200,33,33)"/><stop offset="51.73913043478261%" stop-opacity="1" style="stop-color:rgb(255,0,0)"/><stop offset="100%" stop-opacity="1" style="stop-color:rgb(234,20,20)"/></linearGradient><rect x="26" y="0" width="10" height="44" transform="matrix(1,0,0,1,0,0)" fill="url(#_lgradient_5)"/><defs><filter id="mz9j5iFgTZntEDx5pjFEICTl03hw3Gww" x="-200%" y="-200%" width="400%" height="400%" filterUnits="objectBoundingBox" color-interpolation-filters="sRGB"><feOffset xmlns="http://www.w3.org/2000/svg" in="SourceGraphic" dx="0" dy="0"/><feGaussianBlur xmlns="http://www.w3.org/2000/svg" stdDeviation="2.146804531419514" result="pf_100_offsetBlur"/><feComposite xmlns="http://www.w3.org/2000/svg" in="SourceGraphic" in2="pf_100_offsetBlur" result="pf_100_inverse" operator="out"/><feFlood xmlns="http://www.w3.org/2000/svg" flood-color="#000000" flood-opacity="0.5" result="pf_100_color"/><feComposite xmlns="http://www.w3.org/2000/svg" in="pf_100_color" in2="pf_100_inverse" operator="in" result="pf_100_shadow"/><feComposite xmlns="http://www.w3.org/2000/svg" in="pf_100_shadow" in2="SourceGraphic" operator="over"/></filter></defs><g filter="url(#mz9j5iFgTZntEDx5pjFEICTl03hw3Gww)"><linearGradient id="_lgradient_6" x1="0" y1="0.5" x2="1" y2="0.5" gradientTransform="matrix(10,0,0,63,26.5,-9.5)" gradientUnits="userSpaceOnUse"><stop offset="0%" stop-opacity="1" style="stop-color:rgb(200,33,33)"/><stop offset="51.73913043478261%" stop-opacity="1" style="stop-color:rgb(255,0,0)"/><stop offset="100%" stop-opacity="1" style="stop-color:rgb(234,20,20)"/></linearGradient><rect x="26.5" y="-9.5" width="10" height="63" transform="matrix(0,-1,1,0,9.5,53.5)" fill="url(#_lgradient_6)"/></g></g></g></svg>