<?xml version="1.0" encoding="UTF-8" standalone="no"?><!-- Generator: Gravit.io --><svg xmlns="http://www.w3.org/2000/svg" xmlns:xlink="http://www.w3.org/1999/xlink" style="isolation:isolate" viewBox="0 0 100 70" width="100pt" height="70pt"><defs><clipPath id="_clipPath_8jeSW1E7hQyR7967jNtYtR4W8npxi0xZ"><rect width="100" height="70"/></clipPath></defs><g clip-path="url(#_clipPath_8jeSW1E7hQyR7967jNtYtR4W8npxi0xZ)"><path d="M 4.509 0 L 95.491 0 C 97.979 0 100 2.021 100 4.509 L 100 65.491 C 100 67.979 97.979 70 95.491 70 L 4.509 70 C 2.021 70 0 67.979 0 65.491 L 0 4.509 C 0 2.021 2.021 0 4.509 0 Z" style="fill:none;stroke:#000000;stroke-width:8;stroke-linecap:square;stroke-miterlimit:2;"/><clipPath id="_clipPath_PR0yeeIlNg38WrbBQNUwUTPXr8pahmUb"><path d="M 4.509 0 L 95.491 0 C 97.979 0 100 2.021 100 4.509 L 100 65.491 C 100 67.979 97.979 70 95.491 70 L 4.509 70 C 2.021 70 0 67.979 0 65.491 L 0 4.509 C 0 2.021 2.021 0 4.509 0 Z" style="fill:none;stroke:#000000;stroke-width:8;stroke-linecap:square;stroke-miterlimit:2;"/></clipPath><g clip-path="url(#_clipPath_PR0yeeIlNg38WrbBQNUwUTPXr8pahmUb)"><linearGradient id="_lgradient_12" x1="0" y1="0.5" x2="1" y2="0.5" gradientTransform="matrix(33.333,0,0,70,66.667,0)" gradientUnits="userSpaceOnUse"><stop offset="0%" stop-opacity="1" style="stop-color:rgb(255,101,101)"/><stop offset="46.95652173913044%" stop-opacity="1" style="stop-color:rgb(255,15,15)"/><stop offset="99.1304347826087%" stop-opacity="1" style="stop-color:rgb(210,3,3)"/></linearGradient><rect x="66.667" y="0" width="33.333" height="70" transform="matrix(1,0,0,1,0,0)" fill="url(#_lgradient_12)"/><rect x="33.333" y="0" width="33.333" height="70" transform="matrix(1,0,0,1,0,0)" fill="rgb(255,255,255)"/><linearGradient id="_lgradient_13" x1="0" y1="0.5" x2="1" y2="0.5" gradientTransform="matrix(33.333,0,0,70,0,0)" gradientUnits="userSpaceOnUse"><stop offset="0.43478260869565216%" stop-opacity="1" style="stop-color:rgb(0,162,89)"/><stop offset="48.26086956521739%" stop-opacity="1" style="stop-color:rgb(15,166,75)"/><stop offset="100%" stop-opacity="1" style="stop-color:rgb(0,219,66)"/></linearGradient><rect x="0" y="0" width="33.333" height="70" transform="matrix(1,0,0,1,0,0)" fill="url(#_lgradient_13)"/></g><path d="M 3 0 L 97 0 C 98.656 0 100 1.344 100 3 L 100 67 C 100 68.656 98.656 70 97 70 L 3 70 C 1.344 70 0 68.656 0 67 L 0 3 C 0 1.344 1.344 0 3 0 Z" style="fill:none;stroke:#000000;stroke-width:8;stroke-linecap:round;stroke-linejoin:round;stroke-miterlimit:2;"/></g></svg>