<?xml version="1.0" encoding="UTF-8" standalone="no"?><!-- Generator: Gravit.io --><svg xmlns="http://www.w3.org/2000/svg" xmlns:xlink="http://www.w3.org/1999/xlink" style="isolation:isolate" viewBox="0 0 64 64" width="64pt" height="64pt"><defs><clipPath id="_clipPath_AwJuytsmyTytdM9qQcGJciPpmQGwdZpx"><rect width="64" height="64"/></clipPath></defs><g clip-path="url(#_clipPath_AwJuytsmyTytdM9qQcGJciPpmQGwdZpx)"><path d=" M 15 32 C 15 24.273 22.617 18 32 18 C 41.383 18 49 24.273 49 32 C 49 39.727 41.383 46 32 46 C 22.617 46 15 39.727 15 32 L 15 32 Z  M 0 32 C 0 20.41 14.339 11 32 11 C 49.661 11 64 20.41 64 32 C 64 43.59 49.661 53 32 53 C 14.339 53 0 43.59 0 32 L 0 32 Z  M 19 32 C 19 25.929 24.825 21 32 21 C 39.175 21 45 25.929 45 32 C 45 38.071 39.175 43 32 43 C 24.825 43 19 38.071 19 32 Z " fill-rule="evenodd" fill="rgb(91,91,91)"/></g></svg>